<mxfile host="app.diagrams.net" agent="Mozilla/5.0 (Windows NT 10.0; Win64; x64) AppleWebKit/537.36 (KHTML, like Gecko) Chrome/127.0.0.0 Safari/537.36 OPR/113.0.0.0" version="24.8.3">
  <diagram name="Página-1" id="FjtqOPiaVLxI7ozIS71n">
    <mxGraphModel dx="2220" dy="3134" grid="1" gridSize="10" guides="1" tooltips="1" connect="1" arrows="1" fold="1" page="1" pageScale="1" pageWidth="827" pageHeight="1169" math="0" shadow="0">
      <root>
        <mxCell id="0" />
        <mxCell id="1" parent="0" />
        <mxCell id="49DNqTLfPqyPhk1rZPBO-28" value="" style="rounded=1;whiteSpace=wrap;html=1;" parent="1" vertex="1">
          <mxGeometry x="145" y="-1170" width="710" height="100" as="geometry" />
        </mxCell>
        <mxCell id="49DNqTLfPqyPhk1rZPBO-32" style="edgeStyle=orthogonalEdgeStyle;rounded=0;orthogonalLoop=1;jettySize=auto;html=1;exitX=0.5;exitY=0;exitDx=0;exitDy=0;" parent="1" source="49DNqTLfPqyPhk1rZPBO-21" edge="1">
          <mxGeometry relative="1" as="geometry">
            <mxPoint x="929.8333333333335" y="-1190.1666666666665" as="targetPoint" />
          </mxGeometry>
        </mxCell>
        <mxCell id="49DNqTLfPqyPhk1rZPBO-21" value="" style="rounded=1;whiteSpace=wrap;html=1;" parent="1" vertex="1">
          <mxGeometry x="870" y="-1190" width="120" height="310" as="geometry" />
        </mxCell>
        <mxCell id="49DNqTLfPqyPhk1rZPBO-35" style="edgeStyle=orthogonalEdgeStyle;rounded=0;orthogonalLoop=1;jettySize=auto;html=1;entryX=0;entryY=0.5;entryDx=0;entryDy=0;" parent="1" source="49DNqTLfPqyPhk1rZPBO-2" target="49DNqTLfPqyPhk1rZPBO-33" edge="1">
          <mxGeometry relative="1" as="geometry">
            <Array as="points">
              <mxPoint x="-100" y="-1320" />
            </Array>
          </mxGeometry>
        </mxCell>
        <mxCell id="49DNqTLfPqyPhk1rZPBO-2" value="INICIO" style="ellipse;whiteSpace=wrap;html=1;aspect=fixed;" parent="1" vertex="1">
          <mxGeometry x="-270" y="-1360" width="80" height="80" as="geometry" />
        </mxCell>
        <mxCell id="49DNqTLfPqyPhk1rZPBO-6" style="edgeStyle=orthogonalEdgeStyle;rounded=0;orthogonalLoop=1;jettySize=auto;html=1;exitX=1;exitY=0.5;exitDx=0;exitDy=0;entryX=0;entryY=0.5;entryDx=0;entryDy=0;" parent="1" source="49DNqTLfPqyPhk1rZPBO-4" target="49DNqTLfPqyPhk1rZPBO-5" edge="1">
          <mxGeometry relative="1" as="geometry" />
        </mxCell>
        <mxCell id="49DNqTLfPqyPhk1rZPBO-4" value="CADASTRO" style="rounded=1;whiteSpace=wrap;html=1;" parent="1" vertex="1">
          <mxGeometry x="160" y="-1150" width="120" height="60" as="geometry" />
        </mxCell>
        <mxCell id="49DNqTLfPqyPhk1rZPBO-10" style="edgeStyle=orthogonalEdgeStyle;rounded=0;orthogonalLoop=1;jettySize=auto;html=1;exitX=1;exitY=0.5;exitDx=0;exitDy=0;entryX=0;entryY=0.5;entryDx=0;entryDy=0;" parent="1" source="49DNqTLfPqyPhk1rZPBO-5" target="49DNqTLfPqyPhk1rZPBO-8" edge="1">
          <mxGeometry relative="1" as="geometry" />
        </mxCell>
        <mxCell id="49DNqTLfPqyPhk1rZPBO-5" value="NOME COMPLETO" style="rounded=1;whiteSpace=wrap;html=1;" parent="1" vertex="1">
          <mxGeometry x="300" y="-1150" width="120" height="60" as="geometry" />
        </mxCell>
        <mxCell id="49DNqTLfPqyPhk1rZPBO-7" style="edgeStyle=orthogonalEdgeStyle;rounded=0;orthogonalLoop=1;jettySize=auto;html=1;exitX=1;exitY=0.5;exitDx=0;exitDy=0;entryX=0;entryY=0.5;entryDx=0;entryDy=0;" parent="1" source="49DNqTLfPqyPhk1rZPBO-8" target="49DNqTLfPqyPhk1rZPBO-9" edge="1">
          <mxGeometry relative="1" as="geometry" />
        </mxCell>
        <mxCell id="49DNqTLfPqyPhk1rZPBO-8" value="USUARIO" style="rounded=1;whiteSpace=wrap;html=1;" parent="1" vertex="1">
          <mxGeometry x="440" y="-1150" width="120" height="60" as="geometry" />
        </mxCell>
        <mxCell id="49DNqTLfPqyPhk1rZPBO-12" style="edgeStyle=orthogonalEdgeStyle;rounded=0;orthogonalLoop=1;jettySize=auto;html=1;exitX=1;exitY=0.5;exitDx=0;exitDy=0;entryX=0;entryY=0.5;entryDx=0;entryDy=0;" parent="1" source="49DNqTLfPqyPhk1rZPBO-9" target="49DNqTLfPqyPhk1rZPBO-11" edge="1">
          <mxGeometry relative="1" as="geometry" />
        </mxCell>
        <mxCell id="49DNqTLfPqyPhk1rZPBO-9" value="SENHA" style="rounded=1;whiteSpace=wrap;html=1;" parent="1" vertex="1">
          <mxGeometry x="580" y="-1150" width="120" height="60" as="geometry" />
        </mxCell>
        <mxCell id="49DNqTLfPqyPhk1rZPBO-15" value="" style="edgeStyle=orthogonalEdgeStyle;rounded=0;orthogonalLoop=1;jettySize=auto;html=1;" parent="1" source="49DNqTLfPqyPhk1rZPBO-11" target="49DNqTLfPqyPhk1rZPBO-13" edge="1">
          <mxGeometry relative="1" as="geometry" />
        </mxCell>
        <mxCell id="49DNqTLfPqyPhk1rZPBO-11" value="TURMA" style="rounded=1;whiteSpace=wrap;html=1;" parent="1" vertex="1">
          <mxGeometry x="720" y="-1150" width="120" height="60" as="geometry" />
        </mxCell>
        <mxCell id="49DNqTLfPqyPhk1rZPBO-23" style="edgeStyle=orthogonalEdgeStyle;rounded=0;orthogonalLoop=1;jettySize=auto;html=1;exitX=0.5;exitY=1;exitDx=0;exitDy=0;entryX=0.5;entryY=0;entryDx=0;entryDy=0;" parent="1" source="49DNqTLfPqyPhk1rZPBO-13" target="49DNqTLfPqyPhk1rZPBO-16" edge="1">
          <mxGeometry relative="1" as="geometry" />
        </mxCell>
        <mxCell id="49DNqTLfPqyPhk1rZPBO-13" value="VALIDAÇAO DE DADOS" style="rhombus;whiteSpace=wrap;html=1;" parent="1" vertex="1">
          <mxGeometry x="870" y="-1180" width="120" height="120" as="geometry" />
        </mxCell>
        <mxCell id="49DNqTLfPqyPhk1rZPBO-22" style="edgeStyle=orthogonalEdgeStyle;rounded=0;orthogonalLoop=1;jettySize=auto;html=1;exitX=0.5;exitY=1;exitDx=0;exitDy=0;entryX=0.5;entryY=0;entryDx=0;entryDy=0;" parent="1" source="49DNqTLfPqyPhk1rZPBO-16" target="49DNqTLfPqyPhk1rZPBO-19" edge="1">
          <mxGeometry relative="1" as="geometry" />
        </mxCell>
        <mxCell id="49DNqTLfPqyPhk1rZPBO-16" value="USUARIO UNICO" style="rounded=1;whiteSpace=wrap;html=1;" parent="1" vertex="1">
          <mxGeometry x="870" y="-1050" width="120" height="60" as="geometry" />
        </mxCell>
        <mxCell id="49DNqTLfPqyPhk1rZPBO-54" style="edgeStyle=orthogonalEdgeStyle;rounded=0;orthogonalLoop=1;jettySize=auto;html=1;exitX=0.25;exitY=1;exitDx=0;exitDy=0;entryX=1;entryY=0.5;entryDx=0;entryDy=0;" parent="1" source="49DNqTLfPqyPhk1rZPBO-19" target="49DNqTLfPqyPhk1rZPBO-53" edge="1">
          <mxGeometry relative="1" as="geometry" />
        </mxCell>
        <mxCell id="49DNqTLfPqyPhk1rZPBO-55" style="edgeStyle=orthogonalEdgeStyle;rounded=0;orthogonalLoop=1;jettySize=auto;html=1;exitX=0.5;exitY=1;exitDx=0;exitDy=0;entryX=0;entryY=0.5;entryDx=0;entryDy=0;" parent="1" source="49DNqTLfPqyPhk1rZPBO-19" target="49DNqTLfPqyPhk1rZPBO-31" edge="1">
          <mxGeometry relative="1" as="geometry" />
        </mxCell>
        <mxCell id="49DNqTLfPqyPhk1rZPBO-19" value="SENHA DEVE TER NO MINIMO 8 MAXIMO 10 SENDO NO MINIMO 1 NUMERICO E 1 LETRA" style="rounded=1;whiteSpace=wrap;html=1;" parent="1" vertex="1">
          <mxGeometry x="870" y="-980" width="120" height="100" as="geometry" />
        </mxCell>
        <mxCell id="49DNqTLfPqyPhk1rZPBO-30" style="edgeStyle=orthogonalEdgeStyle;rounded=0;orthogonalLoop=1;jettySize=auto;html=1;exitX=0.5;exitY=1;exitDx=0;exitDy=0;entryX=0.5;entryY=0;entryDx=0;entryDy=0;" parent="1" source="49DNqTLfPqyPhk1rZPBO-24" target="49DNqTLfPqyPhk1rZPBO-26" edge="1">
          <mxGeometry relative="1" as="geometry" />
        </mxCell>
        <mxCell id="49DNqTLfPqyPhk1rZPBO-24" value="SE TUDO ESTIVER CORRETO" style="rounded=1;whiteSpace=wrap;html=1;" parent="1" vertex="1">
          <mxGeometry x="1030" y="-1150" width="120" height="60" as="geometry" />
        </mxCell>
        <mxCell id="drX-Rf22IctAxMhLRNOg-1" style="edgeStyle=orthogonalEdgeStyle;rounded=0;orthogonalLoop=1;jettySize=auto;html=1;entryX=0.408;entryY=1.013;entryDx=0;entryDy=0;entryPerimeter=0;" edge="1" parent="1" source="49DNqTLfPqyPhk1rZPBO-26" target="49DNqTLfPqyPhk1rZPBO-33">
          <mxGeometry relative="1" as="geometry">
            <mxPoint x="210" y="-1280" as="targetPoint" />
            <Array as="points">
              <mxPoint x="1090" y="-810" />
              <mxPoint x="59" y="-810" />
            </Array>
          </mxGeometry>
        </mxCell>
        <mxCell id="49DNqTLfPqyPhk1rZPBO-26" value="CADASTRO REALIZADO COM SUCESSO!!" style="rounded=1;whiteSpace=wrap;html=1;" parent="1" vertex="1">
          <mxGeometry x="1030" y="-1070" width="120" height="60" as="geometry" />
        </mxCell>
        <mxCell id="49DNqTLfPqyPhk1rZPBO-56" style="edgeStyle=orthogonalEdgeStyle;rounded=0;orthogonalLoop=1;jettySize=auto;html=1;exitX=0.5;exitY=1;exitDx=0;exitDy=0;entryX=0.5;entryY=0;entryDx=0;entryDy=0;" parent="1" source="49DNqTLfPqyPhk1rZPBO-31" target="49DNqTLfPqyPhk1rZPBO-24" edge="1">
          <mxGeometry relative="1" as="geometry" />
        </mxCell>
        <mxCell id="49DNqTLfPqyPhk1rZPBO-31" value="SUCESSO!" style="rounded=1;whiteSpace=wrap;html=1;fillColor=#12ef06;strokeColor=#82b366;" parent="1" vertex="1">
          <mxGeometry x="1030" y="-1190" width="120" height="30" as="geometry" />
        </mxCell>
        <mxCell id="49DNqTLfPqyPhk1rZPBO-36" style="edgeStyle=orthogonalEdgeStyle;rounded=0;orthogonalLoop=1;jettySize=auto;html=1;exitX=1;exitY=0;exitDx=0;exitDy=0;" parent="1" source="49DNqTLfPqyPhk1rZPBO-33" target="49DNqTLfPqyPhk1rZPBO-37" edge="1">
          <mxGeometry relative="1" as="geometry">
            <mxPoint x="220" y="-1390" as="targetPoint" />
            <Array as="points">
              <mxPoint x="112" y="-1320" />
              <mxPoint x="170" y="-1320" />
              <mxPoint x="170" y="-1330" />
            </Array>
          </mxGeometry>
        </mxCell>
        <mxCell id="49DNqTLfPqyPhk1rZPBO-33" value="TELA DE LOGIN&amp;nbsp;" style="ellipse;whiteSpace=wrap;html=1;" parent="1" vertex="1">
          <mxGeometry x="10" y="-1360" width="120" height="80" as="geometry" />
        </mxCell>
        <mxCell id="49DNqTLfPqyPhk1rZPBO-37" value="TEM LOGIN ?" style="shape=process;whiteSpace=wrap;html=1;backgroundOutline=1;" parent="1" vertex="1">
          <mxGeometry x="190" y="-1360" width="120" height="60" as="geometry" />
        </mxCell>
        <mxCell id="49DNqTLfPqyPhk1rZPBO-50" style="edgeStyle=orthogonalEdgeStyle;rounded=0;orthogonalLoop=1;jettySize=auto;html=1;exitX=0.5;exitY=0;exitDx=0;exitDy=0;entryX=0.5;entryY=0;entryDx=0;entryDy=0;" parent="1" source="49DNqTLfPqyPhk1rZPBO-38" target="49DNqTLfPqyPhk1rZPBO-28" edge="1">
          <mxGeometry relative="1" as="geometry" />
        </mxCell>
        <mxCell id="49DNqTLfPqyPhk1rZPBO-38" value="NAO" style="rounded=0;whiteSpace=wrap;html=1;fillColor=#ff0000;fontColor=#ffffff;strokeColor=#000033;" parent="1" vertex="1">
          <mxGeometry x="260" y="-1410" width="50" height="30" as="geometry" />
        </mxCell>
        <mxCell id="49DNqTLfPqyPhk1rZPBO-49" style="edgeStyle=orthogonalEdgeStyle;rounded=0;orthogonalLoop=1;jettySize=auto;html=1;entryX=0.5;entryY=0;entryDx=0;entryDy=0;" parent="1" source="49DNqTLfPqyPhk1rZPBO-44" target="49DNqTLfPqyPhk1rZPBO-33" edge="1">
          <mxGeometry relative="1" as="geometry" />
        </mxCell>
        <mxCell id="49DNqTLfPqyPhk1rZPBO-44" value="SIM" style="rounded=1;whiteSpace=wrap;html=1;fillColor=#008a00;fontColor=#ffffff;strokeColor=#005700;" parent="1" vertex="1">
          <mxGeometry x="190" y="-1410" width="60" height="30" as="geometry" />
        </mxCell>
        <mxCell id="49DNqTLfPqyPhk1rZPBO-48" value="FAÇA LOGIN COM SUAS INFORMAÇOES" style="rounded=1;whiteSpace=wrap;html=1;" parent="1" vertex="1">
          <mxGeometry x="60" y="-1460" width="120" height="60" as="geometry" />
        </mxCell>
        <mxCell id="49DNqTLfPqyPhk1rZPBO-51" value="CRIE SEU CADASTRO" style="rounded=1;whiteSpace=wrap;html=1;" parent="1" vertex="1">
          <mxGeometry x="380" y="-1500" width="120" height="60" as="geometry" />
        </mxCell>
        <mxCell id="49DNqTLfPqyPhk1rZPBO-57" style="edgeStyle=orthogonalEdgeStyle;rounded=0;orthogonalLoop=1;jettySize=auto;html=1;exitX=0.5;exitY=0;exitDx=0;exitDy=0;entryX=0.5;entryY=1;entryDx=0;entryDy=0;" parent="1" source="49DNqTLfPqyPhk1rZPBO-53" target="49DNqTLfPqyPhk1rZPBO-28" edge="1">
          <mxGeometry relative="1" as="geometry">
            <mxPoint x="510" y="-1060" as="targetPoint" />
          </mxGeometry>
        </mxCell>
        <mxCell id="49DNqTLfPqyPhk1rZPBO-53" value="FALHOU!" style="rounded=1;whiteSpace=wrap;html=1;fillColor=#fa6800;strokeColor=#C73500;fontColor=#000000;" parent="1" vertex="1">
          <mxGeometry x="720" y="-870" width="120" height="30" as="geometry" />
        </mxCell>
        <mxCell id="49DNqTLfPqyPhk1rZPBO-58" value="CONFIRA SE TUDO ESTA CERTO DE ACORDO COM OS PADROES PEDIDOS" style="rounded=1;whiteSpace=wrap;html=1;" parent="1" vertex="1">
          <mxGeometry x="560" y="-1040" width="120" height="60" as="geometry" />
        </mxCell>
      </root>
    </mxGraphModel>
  </diagram>
</mxfile>
